<svg width="20" height="20" viewBox="0 0 20 20" fill="none" xmlns="http://www.w3.org/2000/svg">
<g clip-path="url(#clip0_829_531)">
<path d="M16.6797 0H3.32031C1.48655 0 0 1.52223 0 3.4V16.568C0 18.4458 1.48655 19.968 3.32031 19.968H16.6797C18.5134 19.968 20 18.4458 20 16.568V3.4C20 1.52223 18.5134 0 16.6797 0Z" fill="#00005B"/>
<path d="M8.03655 11.9468H4.93726L4.30663 13.9565C4.29855 13.991 4.27963 14.0217 4.2528 14.0441C4.22596 14.0665 4.1927 14.0792 4.15812 14.0803L2.57593 14.0802C2.48635 14.0802 2.45504 14.0298 2.48202 13.929L5.16538 6.04827L5.19218 5.96547L5.20109 5.93715L5.21905 5.87795C5.22796 5.84739 5.23687 5.81499 5.24585 5.77987C5.28101 5.59659 5.29898 5.41027 5.29952 5.22347C5.29771 5.21041 5.29889 5.1971 5.30297 5.18458C5.30705 5.17207 5.31391 5.1607 5.32302 5.15137C5.33213 5.14204 5.34323 5.13501 5.35545 5.13084C5.36767 5.12666 5.38067 5.12545 5.39343 5.12731H7.52671C7.58921 5.12731 7.62499 5.15022 7.63405 5.19603L10.6796 13.9428C10.7064 14.0345 10.6796 14.0802 10.5991 14.0802H8.85491C8.82497 14.0835 8.79486 14.0756 8.77018 14.0579C8.7455 14.0403 8.72794 14.014 8.72077 13.984L8.03655 11.9468ZM5.4203 10.2524H7.54015L7.50991 10.1502L7.4614 9.98843L7.39038 9.75675L7.25405 9.31939L7.12421 8.89907L6.88265 8.11595C6.81591 7.89978 6.75184 7.68275 6.69046 7.46491L6.62187 7.21723L6.5478 6.94579L6.48015 6.69403H6.46671C6.39956 7.0238 6.31781 7.35027 6.22171 7.67243L6.13109 7.97027L5.91312 8.69027L5.80265 9.05707C5.7827 9.12331 5.76278 9.1888 5.74288 9.25355L5.68351 9.44539L5.62444 9.63275L5.5657 9.81547L5.50726 9.99363C5.47814 10.0816 5.44916 10.1679 5.4203 10.2524ZM15.617 11.1647H12.974C13.0063 11.4325 13.0931 11.6903 13.2289 11.9216C13.3789 12.1506 13.5911 12.3297 13.8393 12.4368C14.1756 12.5859 14.5395 12.6589 14.9059 12.6508C15.1967 12.6451 15.4863 12.6125 15.7713 12.5536C16.0262 12.5183 16.276 12.4517 16.5153 12.355C16.56 12.3185 16.5824 12.3413 16.5825 12.4236V13.7288C16.5847 13.7644 16.5777 13.8 16.5623 13.8319C16.5469 13.8568 16.5263 13.878 16.5019 13.8937C16.2365 14.0141 15.9572 14.0993 15.6707 14.1473C15.2815 14.2221 14.8859 14.2566 14.49 14.2503C13.8747 14.2503 13.356 14.1557 12.934 13.9667L12.8934 13.948C12.4876 13.7651 12.1293 13.4875 11.8469 13.1375C11.5832 12.8077 11.387 12.4269 11.27 12.0178C11.1542 11.614 11.0955 11.1953 11.0957 10.7744C11.0944 10.3149 11.1646 9.85808 11.3037 9.42115C11.4375 8.99497 11.6492 8.5987 11.9275 8.25339C12.202 7.91218 12.5453 7.63567 12.9337 7.44275C13.3273 7.24595 13.7924 7.17531 14.3291 7.17531C14.7741 7.1639 15.2162 7.25303 15.6238 7.43635C15.9665 7.586 16.2682 7.81933 16.5026 8.11595C16.7224 8.40635 16.8905 8.73424 16.999 9.08451C17.1046 9.42205 17.1589 9.77422 17.16 10.1287C17.16 10.3303 17.1533 10.5135 17.1399 10.6783L17.128 10.8194L17.1155 10.9533L17.108 11.0212L17.1063 11.0355C17.1028 11.0658 17.0886 11.0937 17.0664 11.1139C17.0441 11.1342 17.0154 11.1454 16.9856 11.1454L16.9488 11.1462L16.903 11.1486L16.8673 11.1512L16.7838 11.1585L16.7105 11.166C16.6906 11.1681 16.6699 11.1701 16.6484 11.172L16.5819 11.1773L16.5109 11.1821L16.4355 11.1861L16.3557 11.1896L16.3141 11.191L16.2276 11.1934C16.142 11.1956 16.0544 11.1901 15.9644 11.1834L15.828 11.1732C15.7578 11.1679 15.6874 11.1651 15.617 11.1647ZM12.9741 9.91307H14.8011L14.9567 9.91203L15.0625 9.91051L15.131 9.90891L15.2079 9.90619C15.2767 9.89915 15.3431 9.87661 15.4024 9.84019V9.75779C15.3998 9.65034 15.3817 9.54386 15.3488 9.44179C15.2764 9.20739 15.1309 9.00381 14.9346 8.86232C14.7383 8.72083 14.502 8.64926 14.2621 8.65859C14.0363 8.64463 13.8114 8.69825 13.6148 8.81291C13.4183 8.92758 13.2586 9.09833 13.1551 9.30435C13.0632 9.49598 13.002 9.70148 12.9741 9.91307Z" fill="#9999FF"/>
</g>
<defs>
<clipPath id="clip0_829_531">
<rect width="20" height="20" fill="white"/>
</clipPath>
</defs>
</svg>
