<svg width="20" height="16" viewBox="0 0 20 16" fill="none" xmlns="http://www.w3.org/2000/svg">
<g clip-path="url(#clip0_829_268)">
<path d="M11.3125 8.00012L13.2622 10.1668L15.8839 11.7957L16.3411 8.01345L15.8839 4.31567L13.2119 5.74679L11.3125 8.00012Z" fill="#00832D"/>
<path d="M0 11.4445V14.6667C0 15.4034 0.613714 16.0001 1.37143 16.0001H4.68571L5.37143 13.5645L4.68571 11.4445L2.41143 10.7778L0 11.4445Z" fill="#0066DA"/>
<path d="M4.68571 0L0 4.55556L2.41143 5.22222L4.68571 4.55556L5.36 2.46444L4.68571 0Z" fill="#E94235"/>
<path d="M4.68571 4.55566H0V11.4446H4.68571V4.55566Z" fill="#2684FC"/>
<path d="M18.8818 1.92881L15.8875 4.31548V11.7955L18.8955 14.1933C19.3458 14.5355 20.0041 14.2233 20.0041 13.6666V2.44437C20.0041 1.88103 19.3309 1.57214 18.8818 1.92881ZM11.3161 7.99992V11.4444H4.6875V15.9999H14.5161C15.2738 15.9999 15.8875 15.4033 15.8875 14.6666V11.7955L11.3161 7.99992Z" fill="#00AC47"/>
<path d="M14.5161 0H4.6875V4.55556H11.3161V8L15.8875 4.31778V1.33333C15.8875 0.596667 15.2738 0 14.5161 0Z" fill="#FFBA00"/>
</g>
<defs>
<clipPath id="clip0_829_268">
<rect width="20" height="16" fill="white"/>
</clipPath>
</defs>
</svg>
