<svg width="20" height="21" viewBox="0 0 20 21" fill="none" xmlns="http://www.w3.org/2000/svg">
<g clip-path="url(#clip0_829_503)">
<path d="M1.26878 0.905553L12.8214 0.0333479C14.2237 -0.100837 14.591 -0.000198402 15.4925 0.637182L19.1987 3.2538C19.7997 3.6899 20 3.82408 20 4.32728V18.6516C20 19.5573 19.6661 20.0941 18.5309 20.1611L5.10851 20.9663C4.2404 20.9998 3.83973 20.8992 3.40568 20.3289L0.701169 16.8065C0.200334 16.1356 0 15.6659 0 15.0956V2.34804C0 1.61003 0.33389 0.972645 1.26878 0.905553Z" fill="white"/>
<path fill-rule="evenodd" clip-rule="evenodd" d="M12.8214 0.0331218L1.26878 0.905326C0.33389 0.972419 0 1.6098 0 2.34782V15.0954C0 15.6657 0.200334 16.1689 0.701169 16.8063L3.40568 20.3622C3.83973 20.9325 4.27379 21.0667 5.10851 20.9996L18.5309 20.1945C19.6661 20.1274 20 19.5906 20 18.6849V4.32705C20 3.8574 19.8331 3.72322 19.2654 3.32066C19.2321 3.28712 19.1987 3.28712 19.1653 3.25357L15.4925 0.670502C14.6244 -0.000424531 14.2571 -0.0675172 12.8214 0.0331218ZM5.40902 4.09223C4.30718 4.15932 4.07346 4.19287 3.43907 3.65612L1.86978 2.41491C1.70284 2.24718 1.76962 2.0459 2.20367 2.01235L13.3222 1.20724C14.2571 1.14015 14.7245 1.44207 15.0918 1.74398L16.995 3.11938C17.0952 3.15293 17.2955 3.38775 17.0284 3.38775L5.54257 4.09223H5.40902ZM4.14023 18.5507V6.37338C4.14023 5.83664 4.30718 5.60181 4.77462 5.56827L17.9633 4.7967C18.3973 4.76315 18.5977 5.03152 18.5977 5.56827V17.6449C18.5977 18.1817 18.4975 18.6178 17.7963 18.6513L5.17529 19.3894C4.47412 19.4564 4.14023 19.1881 4.14023 18.5507ZM16.5943 7.0443C16.6611 7.41331 16.5943 7.78232 16.227 7.81587L15.626 7.95006V16.9405C15.0918 17.2424 14.6244 17.3766 14.2237 17.3766C13.5893 17.3766 13.4224 17.1753 12.9215 16.5715L8.91486 10.2648V16.3366L10.1836 16.6386C10.1836 16.6386 10.1836 17.3766 9.18197 17.3766L6.3773 17.5443C6.31052 17.3766 6.3773 16.974 6.64441 16.9069L7.37896 16.7056V8.65453L6.3773 8.55389C6.31052 8.18488 6.51085 7.64814 7.07846 7.61459L10.0835 7.41331L14.2237 13.7871V8.15133L13.1553 8.01715C13.0885 7.58105 13.389 7.24558 13.7896 7.21204L16.5943 7.0443Z" fill="black"/>
</g>
<defs>
<clipPath id="clip0_829_503">
<rect width="20" height="21" fill="white"/>
</clipPath>
</defs>
</svg>
