<svg width="24" height="24" viewBox="0 0 24 24" fill="none" xmlns="http://www.w3.org/2000/svg">
<path d="M3.69922 11.2869L7.32222 7.66294C7.51755 7.46827 7.74122 7.3306 7.99322 7.24993C8.24522 7.16927 8.50622 7.15594 8.77622 7.20993L10.1912 7.50394C9.44522 8.4166 8.83655 9.24193 8.36522 9.97993C7.89389 10.7179 7.42255 11.6139 6.95122 12.6679L3.69922 11.2869ZM7.82422 12.9069C8.25889 11.9003 8.77989 10.9369 9.38722 10.0169C9.99389 9.09827 10.6872 8.24893 11.4672 7.46893C12.7159 6.22027 14.0736 5.28494 15.5402 4.66294C17.0069 4.04094 18.5889 3.77527 20.2862 3.86593C20.3769 5.56327 20.1119 7.14527 19.4912 8.61194C18.8706 10.0786 17.9362 11.4363 16.6882 12.6849C15.9122 13.4603 15.0629 14.1503 14.1402 14.7549C13.2176 15.3596 12.2519 15.8793 11.2432 16.3139L7.82422 12.9069ZM13.9942 10.1389C14.2876 10.4323 14.6429 10.5789 15.0602 10.5789C15.4776 10.5789 15.8329 10.4323 16.1262 10.1389C16.4196 9.8456 16.5662 9.49327 16.5662 9.08193C16.5662 8.6706 16.4196 8.31827 16.1262 8.02493C15.8329 7.7316 15.4776 7.58493 15.0602 7.58493C14.6429 7.58493 14.2872 7.7316 13.9932 8.02493C13.6992 8.31827 13.5526 8.6706 13.5532 9.08193C13.5539 9.49327 13.7006 9.84527 13.9932 10.1379M12.8322 20.4519L11.4432 17.1999C12.4972 16.7293 13.3942 16.2549 14.1342 15.7769C14.8749 15.2989 15.7016 14.6869 16.6142 13.9409L16.9032 15.3559C16.9566 15.6253 16.9462 15.8869 16.8722 16.1409C16.7982 16.3956 16.6636 16.6206 16.4682 16.8159L12.8322 20.4519ZM5.14522 16.1459C5.53655 15.7553 6.01089 15.5619 6.56822 15.5659C7.12555 15.5699 7.59989 15.7679 7.99122 16.1599C8.38255 16.5506 8.57822 17.0249 8.57822 17.5829C8.57822 18.1409 8.38255 18.6153 7.99122 19.0059C7.65122 19.3459 7.10622 19.6369 6.35622 19.8789C5.60622 20.1209 4.73789 20.2883 3.75122 20.3809C3.84322 19.3949 4.01355 18.5276 4.26222 17.7789C4.51089 17.0303 4.80522 16.4859 5.14522 16.1459Z" fill="black"/>
</svg>
