<svg width="20" height="20" viewBox="0 0 20 20" fill="none" xmlns="http://www.w3.org/2000/svg">
<path d="M4.20192 12.6381C4.20192 13.7945 3.2573 14.7391 2.10096 14.7391C0.944618 14.7391 0 13.7945 0 12.6381C0 11.4817 0.944618 10.5371 2.10096 10.5371H4.20192V12.6381Z" fill="#E01E5A"/>
<path d="M5.26172 12.6381C5.26172 11.4817 6.20634 10.5371 7.36268 10.5371C8.51902 10.5371 9.46364 11.4817 9.46364 12.6381V17.8988C9.46364 19.0551 8.51902 19.9998 7.36268 19.9998C6.20634 19.9998 5.26172 19.0551 5.26172 17.8988V12.6381Z" fill="#E01E5A"/>
<path d="M7.36268 4.202C6.20634 4.202 5.26172 3.25736 5.26172 2.101C5.26172 0.944636 6.20634 0 7.36268 0C8.51902 0 9.46364 0.944636 9.46364 2.101V4.202H7.36268Z" fill="#36C5F0"/>
<path d="M7.36151 5.26025C8.51785 5.26025 9.46247 6.20489 9.46247 7.36125C9.46247 8.51762 8.51785 9.46225 7.36151 9.46225H2.10096C0.944618 9.46225 0 8.51762 0 7.36125C0 6.20489 0.944618 5.26025 2.10096 5.26025H7.36151Z" fill="#36C5F0"/>
<path d="M15.7969 7.36125C15.7969 6.20489 16.7415 5.26025 17.8978 5.26025C19.0542 5.26025 19.9988 6.20489 19.9988 7.36125C19.9988 8.51762 19.0542 9.46225 17.8978 9.46225H15.7969V7.36125Z" fill="#2EB67D"/>
<path d="M14.741 7.36164C14.741 8.51801 13.7964 9.46264 12.64 9.46264C11.4837 9.46264 10.5391 8.51801 10.5391 7.36164V2.101C10.5391 0.944636 11.4837 0 12.64 0C13.7964 0 14.741 0.944636 14.741 2.101V7.36164Z" fill="#2EB67D"/>
<path d="M12.64 15.7979C13.7964 15.7979 14.741 16.7425 14.741 17.8989C14.741 19.0552 13.7964 19.9998 12.64 19.9998C11.4837 19.9998 10.5391 19.0552 10.5391 17.8989V15.7979H12.64Z" fill="#ECB22E"/>
<path d="M12.64 14.7391C11.4837 14.7391 10.5391 13.7945 10.5391 12.6381C10.5391 11.4817 11.4837 10.5371 12.64 10.5371H17.9006C19.0569 10.5371 20.0015 11.4817 20.0015 12.6381C20.0015 13.7945 19.0569 14.7391 17.9006 14.7391H12.64Z" fill="#ECB22E"/>
</svg>
