<svg width="16" height="16" viewBox="0 0 16 16" fill="none" xmlns="http://www.w3.org/2000/svg">
<path d="M9.66667 2.00226C11.5292 2.01585 12.5491 2.11124 13.219 2.78105C14 3.5621 14 4.81918 14 7.33334V8.66667C14 11.1808 14 12.4379 13.219 13.219C12.5491 13.8888 11.5292 13.9842 9.66667 13.9977M6.33327 13.9977C4.47073 13.9842 3.45085 13.8888 2.78105 13.219C2 12.4379 2 11.1808 2 8.66667V7.33334C2 4.81918 2 3.5621 2.78105 2.78105C3.45085 2.11125 4.47073 2.01585 6.33327 2.00226" stroke="white" stroke-width="1.5" stroke-linecap="round" stroke-linejoin="round"/>
<path d="M11.334 2.66669V13.3334" stroke="white" stroke-width="1.5" stroke-linecap="round"/>
<path d="M8 1.33331V14.6666" stroke="white" stroke-width="1.5" stroke-linecap="round" stroke-dasharray="3 3"/>
<path d="M4.66602 2.66669V13.3334" stroke="white" stroke-width="1.5" stroke-linecap="round"/>
<path d="M2.33398 5.66669L4.66732 5.66669M13.6673 5.66669L11.334 5.66669" stroke="white" stroke-width="1.5" stroke-linecap="round"/>
<path d="M2.33398 10.3333H4.66732M13.6673 10.3333H11.334" stroke="white" stroke-width="1.5" stroke-linecap="round"/>
</svg>
