<svg width="16" height="16" viewBox="0 0 16 16" fill="none" xmlns="http://www.w3.org/2000/svg">
<path fill-rule="evenodd" clip-rule="evenodd" d="M13.6849 6.91559C13.4378 6.48761 12.9849 6.34692 12.5526 6.28647C12.1168 6.22554 11.5336 6.22555 10.8281 6.22558L10.788 6.22558C10.3679 6.22558 10.0932 6.22144 9.89315 6.19362C9.71219 6.16846 9.65465 6.13122 9.63011 6.1095C9.61211 6.09076 9.58009 6.04694 9.55827 5.88896C9.53254 5.70269 9.53143 5.44726 9.53143 5.03788V4.78822C9.53144 3.72988 9.53145 2.88205 9.45 2.27759C9.37354 1.71021 9.19181 1.07299 8.56235 0.880088C7.94395 0.69058 7.42528 1.09695 7.02211 1.51589C6.59262 1.96219 6.08243 2.65249 5.44364 3.51678L3.35232 6.34632C2.94543 6.89679 2.60623 7.35568 2.40413 7.73514C2.20154 8.11553 2.0541 8.56715 2.27882 9.01771L2.2796 9.01937L2.28197 9.02419L2.28466 9.02952L2.28731 9.03463L2.29021 9.04008L2.29316 9.04551L2.29595 9.05053L2.2989 9.0557L2.3016 9.06032L2.30259 9.06196C2.5476 9.48627 2.99851 9.63481 3.43474 9.70141C3.88429 9.77005 4.48415 9.77445 5.21164 9.77445C5.63605 9.77445 5.90666 9.7754 6.10541 9.80074C6.28098 9.82313 6.33348 9.85764 6.35599 9.87755C6.37593 9.89836 6.41089 9.94699 6.43554 10.1107C6.46375 10.2981 6.46818 10.5574 6.46817 10.9622L6.46817 11.2117C6.46814 12.2701 6.46812 13.1179 6.54956 13.7224C6.62601 14.2898 6.80774 14.927 7.43719 15.1199C8.05559 15.3094 8.57428 14.9031 8.97745 14.4841C9.40695 14.0378 9.91715 13.3475 10.556 12.4832L12.6222 9.68765C13.0427 9.1187 13.3886 8.64335 13.5925 8.24774C13.7921 7.86057 13.9314 7.40631 13.7087 6.95988L13.708 6.95827L13.7056 6.95342L13.7029 6.94807L13.7002 6.94294L13.6973 6.93747L13.6944 6.93202L13.6916 6.92698L13.6886 6.92179L13.6859 6.91715L13.6849 6.91559ZM7.74266 2.2093C7.36401 2.60276 6.89217 3.23937 6.22301 4.14474L4.18158 6.90677C3.74312 7.5 3.44976 7.89916 3.28675 8.20523C3.20741 8.3542 3.17763 8.44818 3.16915 8.50507C3.16391 8.54021 3.1671 8.55607 3.17129 8.56623C3.18741 8.59 3.25743 8.66275 3.58567 8.71287C3.94427 8.76762 4.45989 8.77445 5.21164 8.77445L5.24229 8.77445C5.62705 8.77442 5.96229 8.7744 6.23188 8.80877C6.52066 8.84559 6.80752 8.92932 7.04504 9.1527L7.04892 9.15636L7.05273 9.1601C7.28607 9.38914 7.38092 9.67313 7.42439 9.9618C7.46594 10.2377 7.46818 10.5771 7.46817 10.9622L7.46817 11.1686C7.46816 12.2798 7.46928 13.0595 7.54061 13.5889C7.57612 13.8525 7.6239 14.0071 7.66965 14.0934C7.70393 14.1581 7.72367 14.1624 7.72921 14.1636L7.7302 14.1638L7.73121 14.1641C7.73819 14.1665 7.76277 14.175 7.83855 14.1369C7.93322 14.0893 8.06845 13.9865 8.25691 13.7907C8.63556 13.3972 9.10741 12.7606 9.77658 11.8553L11.818 9.09327C12.254 8.50341 12.5445 8.09841 12.7037 7.7895C12.8402 7.52474 12.8254 7.43508 12.8163 7.41128C12.8013 7.3894 12.734 7.32157 12.4141 7.27684C12.056 7.22677 11.5437 7.22558 10.788 7.22558C10.386 7.22558 10.0375 7.2233 9.75544 7.18409C9.46422 7.1436 9.17668 7.05594 8.94123 6.8345L8.93735 6.83085L8.93354 6.82711C8.69807 6.59598 8.60725 6.31235 8.56767 6.02577C8.53137 5.76288 8.53139 5.43734 8.53142 5.07011L8.53143 4.83141C8.53143 3.72015 8.53029 2.94052 8.45896 2.41114C8.42344 2.14754 8.37566 1.99292 8.32991 1.90658C8.29563 1.84187 8.27589 1.83763 8.27035 1.83644L8.26935 1.8362L8.26835 1.83586C8.26136 1.83345 8.23679 1.82497 8.16101 1.86311C8.06634 1.91074 7.93111 2.01347 7.74266 2.2093Z" fill="white"/>
</svg>
