<svg width="16" height="24" viewBox="0 0 16 24" fill="none" xmlns="http://www.w3.org/2000/svg">
<g clip-path="url(#clip0_829_517)">
<path d="M8 11.9998C8 9.81319 9.77261 8.04053 11.9593 8.04053C14.1459 8.04053 15.9186 9.81319 15.9186 11.9998C15.9186 14.1865 14.1459 15.9591 11.9593 15.9591C9.77261 15.9591 8 14.1865 8 11.9998Z" fill="#1ABCFE"/>
<path d="M0.0820312 19.9188C0.0820312 17.7321 1.85466 15.9595 4.04131 15.9595H8.00059V19.9188C8.00059 22.1054 6.22797 23.878 4.04131 23.878C1.85466 23.878 0.0820312 22.1054 0.0820312 19.9188Z" fill="#0ACF83"/>
<path d="M8 0.12207V8.0406H11.9593C14.1459 8.0406 15.9186 6.26799 15.9186 4.08134C15.9186 1.8947 14.1459 0.12207 11.9593 0.12207H8Z" fill="#FF7262"/>
<path d="M0.0820312 4.08135C0.0820312 6.26799 1.85466 8.0406 4.04131 8.0406H8.00059V0.12207H4.04131C1.85466 0.12207 0.0820312 1.8947 0.0820312 4.08135Z" fill="#F24E1E"/>
<path d="M0.0820312 11.9998C0.0820312 14.1865 1.85466 15.9591 4.04131 15.9591H8.00059V8.04053H4.04131C1.85466 8.04053 0.0820312 9.81319 0.0820312 11.9998Z" fill="#A259FF"/>
</g>
<defs>
<clipPath id="clip0_829_517">
<rect width="16" height="24" fill="white"/>
</clipPath>
</defs>
</svg>
