<svg width="141" height="24" viewBox="0 0 141 24" fill="none" xmlns="http://www.w3.org/2000/svg">
<path d="M4.4466 0.0322216V18.1731C4.4466 18.8605 4.55401 19.376 4.76882 19.7197C4.98363 20.0634 5.39177 20.2353 5.99325 20.2353C6.31546 20.2353 6.58398 20.2138 6.79879 20.1708C7.03508 20.1279 7.3036 20.0419 7.60433 19.913L7.28212 22.813C6.93842 23.0063 6.48731 23.1674 5.9288 23.2963C5.37029 23.4252 4.844 23.4897 4.34994 23.4897C2.69589 23.4897 1.55738 23.06 0.934431 22.2008C0.311477 21.3415 0 20.1601 0 18.6564V0.0322216H4.4466Z" fill="black"/>
<path d="M14.4552 7.05656V23.1674H10.0086V7.05656H14.4552ZM12.2964 4.80104C11.3512 4.80104 10.6423 4.60771 10.1697 4.22105C9.71863 3.81291 9.49308 3.20069 9.49308 2.38441C9.49308 1.58961 9.71863 0.998874 10.1697 0.612213C10.6423 0.204071 11.3512 0 12.2964 0C13.2415 0 13.9397 0.204071 14.3908 0.612213C14.8419 0.998874 15.0674 1.58961 15.0674 2.38441C15.0674 3.20069 14.8419 3.81291 14.3908 4.22105C13.9397 4.60771 13.2415 4.80104 12.2964 4.80104Z" fill="black"/>
<path d="M19.0395 23.1674V7.05656H23.0028L23.1639 10.0532C23.6795 8.95765 24.4098 8.13062 25.355 7.57211C26.3002 7.0136 27.342 6.73434 28.4805 6.73434C29.6405 6.73434 30.6823 7.00286 31.606 7.53989C32.5512 8.07692 33.2386 8.8932 33.6682 9.98874C33.9904 9.25838 34.4308 8.65691 34.9893 8.18432C35.5693 7.69026 36.2137 7.32508 36.9226 7.08879C37.653 6.85249 38.3833 6.73434 39.1137 6.73434C40.1663 6.73434 41.1114 6.94916 41.9492 7.37878C42.787 7.8084 43.4636 8.45284 43.9792 9.31209C44.4947 10.1713 44.7525 11.2561 44.7525 12.5665V23.1674H40.3059V13.4687C40.3059 12.3087 40.0481 11.4817 39.5326 10.9876C39.017 10.4721 38.3618 10.2143 37.567 10.2143C36.9226 10.2143 36.3426 10.3754 35.8271 10.6976C35.3115 11.0198 34.8926 11.5032 34.5704 12.1476C34.2697 12.7706 34.1193 13.5331 34.1193 14.4353V23.1674H29.6727V13.4687C29.6727 12.3087 29.4149 11.4817 28.8994 10.9876C28.3838 10.4721 27.7394 10.2143 26.9661 10.2143C26.3861 10.2143 25.8276 10.3647 25.2906 10.6654C24.7535 10.9661 24.3132 11.4387 23.9695 12.0832C23.6472 12.7276 23.4861 13.5654 23.4861 14.5965V23.1674H19.0395Z" fill="black"/>
<path d="M56.4988 23.4897C54.8448 23.4897 53.3948 23.1674 52.1489 22.523C50.9245 21.8571 49.9685 20.9012 49.2812 19.6553C48.5938 18.3879 48.2501 16.8735 48.2501 15.112C48.2501 13.3505 48.5938 11.8469 49.2812 10.601C49.9685 9.33357 50.9137 8.37766 52.1167 7.73322C53.3196 7.0673 54.7051 6.73434 56.2733 6.73434C57.8629 6.73434 59.2162 7.0673 60.3332 7.73322C61.4717 8.37766 62.3417 9.26912 62.9432 10.4076C63.5446 11.5461 63.8454 12.8457 63.8454 14.3065C63.8454 14.6931 63.8346 15.0583 63.8132 15.402C63.7917 15.7242 63.7595 16.0035 63.7165 16.2398H51.15V13.5976H61.751L59.5921 14.3387C59.5921 13.415 59.4632 12.6309 59.2054 11.9865C58.9477 11.3421 58.5718 10.848 58.0777 10.5043C57.5836 10.1606 56.9821 9.98874 56.2733 9.98874C55.4785 9.98874 54.7911 10.1821 54.2111 10.5687C53.6526 10.9554 53.2229 11.5354 52.9222 12.3087C52.643 13.0605 52.5033 14.0165 52.5033 15.1764C52.5033 16.3149 52.6644 17.2601 52.9867 18.012C53.3089 18.7638 53.7707 19.3223 54.3722 19.6875C54.9737 20.0527 55.6825 20.2353 56.4988 20.2353C57.3796 20.2353 58.0992 20.0527 58.6577 19.6875C59.2377 19.3008 59.678 18.7745 59.9788 18.1086L63.5232 19.4619C63.201 20.3212 62.6854 21.0515 61.9765 21.653C61.2891 22.2545 60.4728 22.7163 59.5277 23.0386C58.5825 23.3393 57.5729 23.4897 56.4988 23.4897Z" fill="black"/>
<path d="M73.3309 23.4897C72.042 23.4897 70.8928 23.1674 69.8832 22.523C68.8736 21.8571 68.0788 20.9012 67.4988 19.6553C66.9403 18.3879 66.661 16.8842 66.661 15.1442C66.661 13.3613 66.951 11.8469 67.531 10.601C68.1325 9.33357 68.9488 8.37766 69.9799 7.73322C71.0109 7.0673 72.1817 6.73434 73.492 6.73434C74.9098 6.73434 76.0698 7.15323 76.972 7.99099C77.8742 8.80728 78.4649 9.88134 78.7442 11.2132L78.2931 11.7287V0.0322216H82.7397V23.1674H78.7764L78.4542 18.1408L79.0019 18.4308C78.8516 19.4619 78.5079 20.3641 77.9708 21.1375C77.4553 21.8893 76.8001 22.4693 76.0053 22.8774C75.2105 23.2856 74.319 23.4897 73.3309 23.4897ZM74.7164 20.1064C75.4468 20.1064 76.0698 19.913 76.5853 19.5264C77.1223 19.1182 77.5412 18.5382 77.842 17.7864C78.1427 17.0131 78.2931 16.0787 78.2931 14.9831C78.2931 13.952 78.1427 13.082 77.842 12.3732C77.5627 11.6428 77.1546 11.0843 76.6175 10.6976C76.102 10.311 75.4898 10.1176 74.7809 10.1176C73.6424 10.1176 72.7402 10.5473 72.0743 11.4065C71.4298 12.2443 71.1076 13.4794 71.1076 15.112C71.1076 16.7446 71.4191 17.9905 72.042 18.8497C72.6865 19.6875 73.5779 20.1064 74.7164 20.1064Z" fill="black"/>
<path d="M113.45 6.73434C114.889 6.73434 116.102 6.94916 117.091 7.37878C118.079 7.8084 118.863 8.37766 119.443 9.08653C120.044 9.79541 120.463 10.601 120.699 11.5032L116.575 12.9854C116.382 11.9972 116.038 11.2561 115.544 10.7621C115.071 10.268 114.395 10.021 113.514 10.021C112.741 10.021 112.075 10.2143 111.516 10.601C110.958 10.9876 110.539 11.5569 110.26 12.3087C109.98 13.0605 109.841 14.0057 109.841 15.1442C109.841 16.2827 109.991 17.2279 110.292 17.9797C110.593 18.7316 111.022 19.2901 111.581 19.6553C112.139 20.0204 112.794 20.203 113.546 20.203C114.169 20.203 114.695 20.0956 115.125 19.8808C115.576 19.6445 115.931 19.3116 116.188 18.8819C116.468 18.4523 116.661 17.926 116.768 17.3031L120.764 18.6242C120.571 19.5693 120.152 20.4179 119.507 21.1697C118.884 21.9001 118.068 22.4693 117.058 22.8774C116.07 23.2856 114.91 23.4897 113.578 23.4897C111.946 23.4897 110.507 23.1567 109.261 22.4908C108.036 21.8249 107.08 20.869 106.393 19.623C105.706 18.3771 105.362 16.8735 105.362 15.112C105.362 13.3505 105.706 11.8469 106.393 10.601C107.08 9.35505 108.026 8.39914 109.228 7.73322C110.453 7.0673 111.86 6.73434 113.45 6.73434Z" fill="black"/>
<path d="M140.313 7.05656L132.999 14.8864L132.129 15.2409L127.457 20.3964L127.424 15.692L135.254 7.05656H140.313ZM128.584 0.0322216V23.1674H124.138V0.0322216H128.584ZM133.611 12.1798L140.668 23.1674H135.673L130.582 14.7898L133.611 12.1798Z" fill="black"/>
<path d="M94.0838 3.77462C93.9953 3.81887 93.9012 3.90737 93.8736 3.96822C93.8404 4.02906 93.8182 4.16182 93.8182 4.26138C93.8182 4.35542 93.868 4.54348 93.9289 4.67623C93.9823 4.78796 94.0571 4.99354 94.1082 5.15811C94.3437 6.00828 94.318 7.06939 94.318 7.06939C94.318 7.06939 93.8169 7.002 93.8366 7.06939C93.2094 7.07997 92.8229 7.11251 92.5737 7.14876C92.2695 7.19854 91.8214 7.28704 91.578 7.34789C91.3347 7.40873 90.8756 7.56914 90.5547 7.7019C90.2339 7.84018 89.7416 8.08909 89.454 8.2661C89.1719 8.4431 88.7128 8.77498 88.4307 9.0073C88.1541 9.23409 87.7891 9.58256 87.6176 9.78169C87.4461 9.97529 87.1695 10.3238 87.0091 10.5506C86.8432 10.7773 86.5832 11.2143 86.4228 11.5185C86.2679 11.8228 86.0633 12.2985 85.9692 12.5695C85.8697 12.8405 85.7424 13.3052 85.6871 13.5928C85.6263 13.8804 85.5599 14.3451 85.5378 14.6161C85.5101 14.9922 85.5212 15.1582 85.582 15.2965C85.6318 15.4126 85.7314 15.5122 85.8531 15.5675C86.019 15.6394 86.0743 15.6394 86.2237 15.5786C86.2671 15.5581 86.3447 15.4976 86.4358 15.4145C86.4421 15.4354 87.8697 14.3743 87.8515 14.3622C88.3169 14.0947 88.6115 13.9835 89.1377 13.8768C89.6194 13.7792 89.907 13.8727 90.3945 13.8104C90.7321 13.7672 90.9174 13.7058 91.2521 13.6556C91.5994 13.6095 92.0135 13.5175 92.2227 13.4464C92.4277 13.3795 92.708 13.2665 92.8502 13.1954C92.9967 13.1243 93.2268 12.982 93.3648 12.8858C93.5029 12.7854 93.7288 12.5888 93.871 12.4423C94.0091 12.2959 94.2141 12.024 94.327 11.8399C94.44 11.6558 94.5864 11.3714 94.645 11.2124C94.6728 11.1418 94.7064 11.0375 94.74 10.9221C94.7651 10.8557 94.794 10.767 94.8233 10.6685C94.8829 10.5043 94.9583 10.2396 95.0161 10.0046C95.092 10.0139 95.2545 10.057 95.4357 10.1163C95.6783 10.1958 95.9963 10.3213 96.1469 10.3966C96.2975 10.4719 96.5694 10.6309 96.7535 10.7522C96.9376 10.8735 97.2388 11.1162 97.4228 11.2835C97.6069 11.455 97.8537 11.7144 97.9709 11.865C98.0922 12.0114 98.2637 12.2583 98.36 12.4172C98.4562 12.572 98.611 12.8732 98.703 13.0866C98.7992 13.2958 98.9038 13.5677 98.9331 13.6807C98.9666 13.7978 99.0251 14.0321 99.0628 14.2036C99.113 14.4337 99.1339 14.7098 99.1339 15.2495C99.1297 15.785 99.113 16.0653 99.0586 16.2954C99.021 16.4669 98.9498 16.7305 98.9038 16.8811C98.8578 17.0317 98.7197 17.358 98.5984 17.6132C98.4729 17.8684 98.2554 18.2324 98.1089 18.4248C97.9625 18.6214 97.7073 18.9101 97.5442 19.0732C97.3768 19.2364 97.0882 19.4832 96.8957 19.6213C96.7033 19.7593 96.3686 19.9602 96.1469 20.0647C95.9293 20.1735 95.6281 20.299 95.4775 20.345C95.3269 20.3952 95.0842 20.4622 94.9336 20.4998C94.783 20.5333 94.4734 20.5793 94.2434 20.6044C93.9505 20.6337 93.6744 20.6337 93.323 20.6044C93.0469 20.5793 92.6703 20.5207 92.4863 20.4747C92.3022 20.4245 92.001 20.3325 91.8169 20.2656C91.6328 20.1986 91.3609 20.0731 91.2103 19.9894C91.0597 19.9058 90.7961 19.7426 90.6246 19.6255C90.4531 19.5125 90.1393 19.2448 89.9343 19.0398C89.7251 18.8306 89.4323 18.4708 89.2775 18.2407C89.1227 18.0106 88.9344 17.6801 88.855 17.5086C85.6323 17.0729 85.9088 17.0813 85.6982 17.0112C85.7203 17.1827 85.8033 17.5256 85.8807 17.769C85.9582 18.0124 86.1794 18.5379 86.3786 18.9306C86.5722 19.3233 86.8874 19.8599 87.081 20.1198C87.2691 20.3798 87.5899 20.7615 87.7891 20.9717C87.9882 21.1819 88.3367 21.5027 88.5634 21.6852C88.7902 21.8677 89.1 22.1001 89.2549 22.1941C89.4042 22.2937 89.7803 22.4983 90.0846 22.6532C90.3888 22.8025 90.8258 22.9961 91.0526 23.0681C91.2793 23.1455 91.7053 23.2672 91.9929 23.3336C92.3746 23.4165 92.7784 23.4608 93.4587 23.4829C94.0561 23.4995 94.5705 23.4829 94.8692 23.4442C95.1292 23.4055 95.5883 23.3114 95.8925 23.234C96.1967 23.1621 96.7167 22.974 97.0541 22.8247C97.386 22.6753 97.834 22.4485 98.0497 22.3213C98.2655 22.1941 98.6748 21.9009 98.9624 21.6686C99.2501 21.4363 99.6704 21.0436 99.8862 20.7947C100.107 20.5457 100.439 20.1088 100.627 19.8322C100.815 19.5501 101.042 19.1684 101.131 18.9859C101.225 18.8034 101.385 18.4162 101.49 18.1285C101.595 17.8409 101.745 17.3431 101.822 17.0223C101.922 16.5853 101.966 16.2202 101.988 15.5564C102.01 14.8208 101.999 14.5608 101.905 14.0077C101.844 13.6426 101.7 13.0729 101.59 12.7354C101.474 12.398 101.308 11.9666 101.214 11.7675C101.12 11.5683 100.943 11.2475 100.821 11.0484C100.699 10.8492 100.472 10.5118 100.312 10.3016C100.157 10.0914 99.8198 9.70978 99.5653 9.45534C99.3109 9.20643 98.9016 8.85242 98.6582 8.66989C98.4148 8.48735 97.917 8.18313 97.5519 7.99506C97.1869 7.80699 96.689 7.59127 96.4457 7.5083C96.2023 7.42533 95.8649 7.33129 95.6989 7.29257L95.3947 7.23173C95.3283 5.71613 95.2785 5.28469 95.2011 4.96387C95.1347 4.70389 95.0186 4.36095 94.9356 4.19501C94.8471 4.02353 94.7143 3.85206 94.6203 3.79122C94.5263 3.7359 94.4046 3.69165 94.3437 3.69165C94.2829 3.69718 94.1667 3.73037 94.0782 3.77462H94.0838Z" fill="#FEF200"/>
</svg>
