<svg width="16" height="16" viewBox="0 0 16 16" fill="none" xmlns="http://www.w3.org/2000/svg">
<g clip-path="url(#clip0_256_232)">
<path fill-rule="evenodd" clip-rule="evenodd" d="M8.16732 1.88946C7.86038 1.8373 7.44197 1.83335 6.68718 1.83335C5.40939 1.83335 4.50115 1.8344 3.81255 1.92656C3.13796 2.01684 2.75034 2.1862 2.46859 2.46795C2.18645 2.75009 2.01733 3.13652 1.92716 3.80725C1.83505 4.49235 1.83398 5.39547 1.83398 6.66668V9.33335C1.83398 10.6046 1.83505 11.5077 1.92716 12.1928C2.01733 12.8635 2.18645 13.2499 2.46859 13.5321C2.75073 13.8142 3.13716 13.9833 3.80788 14.0735C4.49299 14.1656 5.3961 14.1667 6.66732 14.1667H9.33398C10.6052 14.1667 11.5083 14.1656 12.1934 14.0735C12.8641 13.9833 13.2506 13.8142 13.5327 13.5321C13.8149 13.2499 13.984 12.8635 14.0741 12.1928C14.1663 11.5077 14.1673 10.6046 14.1673 9.33335V9.04195C14.1673 8.01794 14.1601 7.5325 14.0514 7.16668H11.9649C11.2096 7.1667 10.5925 7.16671 10.1052 7.1012C9.59594 7.03273 9.15438 6.88454 8.80192 6.53208C8.44946 6.17962 8.30127 5.73806 8.2328 5.22876C8.16729 4.74151 8.1673 4.12436 8.16732 3.36914V1.88946ZM9.16732 2.40631V3.33335C9.16732 4.13316 9.16838 4.68271 9.22388 5.09551C9.27744 5.49392 9.37333 5.68928 9.50903 5.82497C9.64472 5.96066 9.84008 6.05655 10.2385 6.11012C10.6513 6.16562 11.2008 6.16668 12.0007 6.16668H13.347C13.1493 5.97498 12.8961 5.74529 12.5673 5.44936L9.92813 3.07409C9.60454 2.78286 9.36371 2.56789 9.16732 2.40631ZM6.78429 0.83333C7.70736 0.833083 8.30372 0.832923 8.8526 1.04355C9.40147 1.25417 9.84276 1.65154 10.5255 2.26635C10.5491 2.28757 10.5729 2.30905 10.5971 2.3308L13.2363 4.70606C13.2644 4.73135 13.2921 4.75631 13.3195 4.78098C14.1087 5.49074 14.6189 5.9497 14.8934 6.56599C15.1679 7.18228 15.1677 7.86859 15.1673 8.92993C15.1673 8.96681 15.1673 9.00414 15.1673 9.04195V9.37095C15.1673 10.5961 15.1673 11.5666 15.0652 12.326C14.9601 13.1076 14.7387 13.7403 14.2398 14.2392C13.7409 14.7381 13.1083 14.9595 12.3267 15.0646C11.5672 15.1667 10.5968 15.1667 9.37159 15.1667H6.62971C5.40454 15.1667 4.43411 15.1667 3.67464 15.0646C2.89302 14.9595 2.26039 14.7381 1.76148 14.2392C1.26257 13.7403 1.04116 13.1076 0.936075 12.326C0.833966 11.5666 0.833974 10.5961 0.833985 9.37096V6.62907C0.833974 5.4039 0.833966 4.43347 0.936075 3.674C1.04116 2.89238 1.26257 2.25975 1.76148 1.76084C2.26078 1.26154 2.89553 1.04037 3.6799 0.935397C4.44254 0.833328 5.41779 0.833336 6.64966 0.833347L6.68718 0.833347C6.71995 0.833347 6.75231 0.833338 6.78429 0.83333Z" fill="white"/>
</g>
<defs>
<clipPath id="clip0_256_232">
<rect width="16" height="16" fill="white"/>
</clipPath>
</defs>
</svg>
