<svg width="15" height="15" viewBox="0 0 15 15" fill="none" xmlns="http://www.w3.org/2000/svg">
<path fill-rule="evenodd" clip-rule="evenodd" d="M5.30431 1.28794C5.13622 1.34119 4.97022 1.40171 4.80679 1.46941C4.05861 1.77931 3.3788 2.23355 2.80618 2.80617C2.23355 3.3788 1.77931 4.05861 1.46941 4.80678C1.22347 5.40054 1.07225 6.02813 1.0203 6.66667H4.00729C4.02863 5.93607 4.09666 5.21607 4.20971 4.53371C4.34834 3.69705 4.55314 2.92609 4.81681 2.26693C4.96076 1.90704 5.1234 1.57761 5.30431 1.28794ZM7.16667 0C6.22553 -1.19209e-07 5.2936 0.185371 4.4241 0.54553C3.5546 0.905688 2.76455 1.43358 2.09907 2.09907C1.43358 2.76455 0.905689 3.5546 0.54553 4.4241C0.185371 5.2936 7.94729e-08 6.22553 0 7.16667C-7.94728e-08 8.10781 0.185371 9.03973 0.54553 9.90923C0.905688 10.7787 1.43358 11.5688 2.09907 12.2343C2.76455 12.8998 3.5546 13.4276 4.4241 13.7878C5.2936 14.148 6.22553 14.3333 7.16667 14.3333C8.10781 14.3333 9.03973 14.148 9.90923 13.7878C10.7787 13.4276 11.5688 12.8998 12.2343 12.2343C12.8998 11.5688 13.4276 10.7787 13.7878 9.90923C14.148 9.03973 14.3333 8.10781 14.3333 7.16667C14.3333 6.22553 14.148 5.2936 13.7878 4.4241C13.4276 3.5546 12.8998 2.76456 12.2343 2.09907C11.5688 1.43358 10.7787 0.905689 9.90923 0.54553C9.03973 0.185372 8.10781 1.19209e-07 7.16667 0ZM7.16667 1C6.9925 1 6.76749 1.08386 6.50585 1.3548C6.24227 1.62774 5.97841 2.0555 5.74529 2.63832C5.51371 3.21726 5.32567 3.91616 5.19626 4.69717C5.09244 5.32379 5.02877 5.98875 5.00774 6.66667L9.32559 6.66667C9.30456 5.98875 9.24089 5.32379 9.13707 4.69717C9.00767 3.91616 8.81962 3.21726 8.58805 2.63832C8.35492 2.05551 8.09106 1.62774 7.82748 1.3548C7.56584 1.08386 7.34084 1 7.16667 1ZM10.326 6.66667C10.3047 5.93607 10.2367 5.21607 10.1236 4.53372C9.985 3.69706 9.78019 2.92609 9.51652 2.26693C9.37257 1.90705 9.20993 1.57761 9.02902 1.28794C9.19711 1.34119 9.36311 1.40171 9.52655 1.46941C10.2747 1.77931 10.9545 2.23355 11.5272 2.80618C12.0998 3.3788 12.554 4.05861 12.8639 4.80679C13.1099 5.40054 13.2611 6.02813 13.313 6.66667H10.326ZM9.32559 7.66667L5.00774 7.66667C5.02877 8.34458 5.09244 9.00954 5.19626 9.63616C5.32567 10.4172 5.51371 11.1161 5.74529 11.695C5.97841 12.2778 6.24227 12.7056 6.50585 12.9785C6.76749 13.2495 6.9925 13.3333 7.16667 13.3333C7.34084 13.3333 7.56585 13.2495 7.82748 12.9785C8.09106 12.7056 8.35492 12.2778 8.58805 11.695C8.81962 11.1161 9.00767 10.4172 9.13707 9.63616C9.24089 9.00954 9.30456 8.34458 9.32559 7.66667ZM9.02903 13.0454C9.20993 12.7557 9.37257 12.4263 9.51652 12.0664C9.78019 11.4072 9.985 10.6363 10.1236 9.79962C10.2367 9.11726 10.3047 8.39726 10.326 7.66667H13.313C13.2611 8.3052 13.1099 8.93279 12.8639 9.52655C12.554 10.2747 12.0998 10.9545 11.5272 11.5272C10.9545 12.0998 10.2747 12.554 9.52655 12.8639C9.36311 12.9316 9.19711 12.9921 9.02903 13.0454ZM5.30431 13.0454C5.1234 12.7557 4.96076 12.4263 4.81681 12.0664C4.55314 11.4072 4.34833 10.6363 4.20971 9.79962C4.09666 9.11726 4.02863 8.39726 4.00729 7.66667H1.0203C1.07225 8.3052 1.22347 8.93279 1.46941 9.52655C1.77931 10.2747 2.23355 10.9545 2.80617 11.5272C3.3788 12.0998 4.05861 12.554 4.80678 12.8639C4.97022 12.9316 5.13622 12.9921 5.30431 13.0454Z" fill="white"/>
</svg>
