<svg width="16" height="16" viewBox="0 0 16 16" fill="none" xmlns="http://www.w3.org/2000/svg">
<g clip-path="url(#clip0_309_71)">
<path fill-rule="evenodd" clip-rule="evenodd" d="M6.66043 7.27334C6.96613 7.07261 7.37777 7.03608 7.73719 7.25889L9.9849 8.65231C10.3431 8.87436 10.5006 9.25823 10.5006 9.60676C10.5006 9.95529 10.3431 10.3392 9.9849 10.5612L7.73719 11.9546C7.37777 12.1774 6.96614 12.1409 6.66043 11.9402C6.35998 11.7429 6.16732 11.3956 6.16732 11.0002V8.21334C6.16732 7.81796 6.35998 7.4706 6.66043 7.27334ZM7.20928 8.10926C7.19696 8.11734 7.16732 8.14688 7.16732 8.21334V11.0002C7.16732 11.0666 7.19696 11.0962 7.20928 11.1043L7.21012 11.1048L9.458 9.71128C9.47209 9.70255 9.50065 9.67233 9.50065 9.60676C9.50065 9.5412 9.47209 9.51098 9.458 9.50224L7.21029 8.10882L7.20928 8.10926Z" fill="white"/>
<path fill-rule="evenodd" clip-rule="evenodd" d="M5.80022 0.833318C5.65365 0.833278 5.54128 0.833248 5.44305 0.84379C4.54027 0.940672 3.84929 1.68201 3.80735 2.58002C3.01343 2.81704 2.44771 3.55165 2.4375 4.39418C2.03695 4.51441 1.69146 4.70402 1.40862 5.00953C0.973964 5.47903 0.839266 6.05764 0.834136 6.73353C0.829205 7.3833 0.944992 8.20445 1.08878 9.22418L1.38144 11.2999C1.49385 12.0973 1.58516 12.745 1.72724 13.2526C1.87589 13.7837 2.095 14.2207 2.50067 14.5565C2.90313 14.8898 3.3806 15.0335 3.94497 15.1012C4.49066 15.1667 5.17714 15.1667 6.03187 15.1667H9.9694C10.8241 15.1667 11.5106 15.1667 12.0563 15.1012C12.6207 15.0335 13.0982 14.8898 13.5006 14.5565C13.9063 14.2207 14.1254 13.7837 14.2741 13.2526C14.4161 12.745 14.5075 12.0973 14.6199 11.2999L14.9125 9.22419C15.0563 8.20446 15.1721 7.3833 15.1672 6.73353C15.162 6.05764 15.0273 5.47903 14.5927 5.00953C14.3098 4.70395 13.9642 4.51432 13.5635 4.3941C13.5533 3.55164 12.9876 2.81712 12.1938 2.58007C12.1519 1.68203 11.4609 0.940673 10.5581 0.84379C10.4599 0.833248 10.3475 0.833278 10.2009 0.833318H5.80022ZM12.541 4.21852C12.4496 3.81343 12.0877 3.49999 11.6418 3.49999H4.35923C3.91329 3.49999 3.55144 3.81344 3.46 4.21854C4.07719 4.16664 4.83381 4.16665 5.74461 4.16666H10.2567C11.1673 4.16665 11.9239 4.16664 12.541 4.21852ZM11.1791 2.49999C11.1081 2.15086 10.8182 1.87744 10.4514 1.83808C10.4139 1.83405 10.3604 1.83332 10.1732 1.83332H5.82798C5.64074 1.83332 5.58727 1.83405 5.54975 1.83808C5.18295 1.87744 4.89306 2.15086 4.82205 2.49999H11.1791ZM2.14243 5.68888C2.34436 5.47077 2.64802 5.32609 3.23807 5.24761C3.83882 5.1677 4.64303 5.16666 5.78224 5.16666H10.2191C11.3583 5.16666 12.1625 5.1677 12.7632 5.24761C13.3533 5.32609 13.6569 5.47077 13.8589 5.68888C14.0561 5.90194 14.163 6.19186 14.1672 6.74112C14.1715 7.30784 14.0674 8.05518 13.9165 9.12551L13.6346 11.1255C13.516 11.9661 13.433 12.5473 13.3111 12.9831C13.1936 13.4028 13.0553 13.627 12.8629 13.7863C12.6672 13.9483 12.4045 14.0522 11.9372 14.1083C11.458 14.1643 10.7419 14.1667 9.80096 14.1667H6.19937C5.25845 14.1667 4.54238 14.1643 4.06316 14.1083C3.59585 14.0522 3.33317 13.9483 3.13745 13.7863C2.94503 13.627 2.80678 13.4028 2.68925 12.9831C2.56737 12.5473 2.48439 11.9661 2.36577 11.1255L2.08388 9.12551C1.93297 8.05518 1.82885 7.30784 1.83317 6.74112C1.83737 6.19186 1.94425 5.90194 2.14147 5.68888ZM12.7225 1.83808C12.685 1.83405 12.6315 1.83332 12.4443 1.83332H13.8336C14.0208 1.83332 14.0743 1.83405 14.1118 1.83808C14.4786 1.87744 14.7685 2.15086 14.8395 2.49999H13.1673V2.40631C13.1673 2.15234 13.1558 1.95689 13.1189 1.80165C13.0118 1.82869 12.8808 1.89066 12.7225 1.83808Z" fill="white"/>
</g>
<defs>
<clipPath id="clip0_309_71">
<rect width="16" height="16" fill="white"/>
</clipPath>
</defs>
</svg>